<svg width="286" height="170" viewBox="0 0 286 170" fill="none" xmlns="http://www.w3.org/2000/svg">
<path fill-rule="evenodd" clip-rule="evenodd" d="M184.22 154.514C211.528 119.015 176.907 74.061 142.22 41.5145C97.9898 0.0145104 35.0123 -13.2838 9.48982 15.0145C-19.5102 50.5146 23.9898 106.014 58.9898 134.514C96.4898 164.014 161.142 184.514 184.22 154.514ZM176.223 124.067C183.541 112.444 170.429 76.1029 144.37 53.9022C118.31 31.7016 66.0264 -0.335313 40.199 18.6047C15.2325 44.4322 63.6423 90.2437 89.7015 112.444C119.403 129.663 161.859 146.881 176.223 124.067Z" fill="#333333"/>
<path d="M106.92 144.729C0.166578 87.9083 2.46234 37.2579 16.9544 19.0352C12.822 61.0478 71.4789 108.283 101.324 126.649C161.108 158.166 182.163 143.366 186.039 130.265C186.229 129.512 186.401 128.737 186.554 127.941C186.441 128.703 186.271 129.481 186.039 130.265C177.261 165.023 129.952 154.56 106.92 144.729Z" fill="#F5F5F5"/>
<path d="M216.859 54.7941L216.859 54.7942L216.862 54.7975C223.346 61.425 241.996 72.5907 264.79 64.3077C268.518 63.5926 277.836 62.6824 285.373 64.7378L285.477 64.4581C279.081 61.3663 275.519 54.3737 272.613 46.101C271.611 43.247 270.689 40.2488 269.756 37.2127C269.337 35.8516 268.916 34.4829 268.485 33.1162C267.092 28.7043 265.59 24.3179 263.702 20.2999C259.926 12.2627 254.599 5.67959 245.498 3.30964C236.408 0.942365 223.589 2.78914 204.853 11.5109L204.96 11.7906C214.831 8.82934 238.409 10.4539 254.218 40.457C244.546 30.4371 219.204 14.237 188.944 23.9874L188.97 24.2788C193.634 24.9149 196.722 28.2826 200.598 33.6557C201.394 34.7592 202.223 35.9459 203.104 37.2085C206.507 42.0822 210.699 48.0863 216.859 54.7941Z" fill="#333333" stroke="black" stroke-width="0.3"/>
<path d="M107.612 28.5145C6.7129 30.9251 12.194 108.149 27.547 146.46L51.2221 131.824C43.6461 117.705 44.0478 104.992 45.1957 100.401H73.6059L69.7318 131.394H95.5592L106.321 55.6333H79.2018L76.1886 76.7257L50.3612 77.5866C55.8711 53.481 93.4069 50.3244 111.486 51.7592L107.612 28.5145Z" fill="white" stroke="#333333" stroke-width="9"/>
<path d="M109.451 30.2271C8.55154 32.6377 14.0327 109.862 29.3856 148.172L53.0608 133.537C45.4847 119.418 45.8865 106.705 47.0344 102.113H75.4445L71.5704 133.106H97.3978L108.159 57.3459H81.0405L78.0273 78.4383L52.1998 79.2992C57.7097 55.1936 95.2455 52.0369 113.325 53.4718L109.451 30.2271Z" fill="black"/>
<path d="M107.35 28.5053C6.45124 30.9158 11.9324 108.14 27.2853 146.45L50.9605 131.815C43.3844 117.696 43.7862 104.983 44.9341 100.392H73.3442L69.4701 131.384H95.2975L106.059 55.6241H78.9402L75.927 76.7164L50.0996 77.5774C55.6094 53.4718 93.1452 50.3151 111.224 51.7499L107.35 28.5053Z" fill="white"/>
<path d="M109.99 130.963L125.056 28.5145H149.161L134.095 130.963H109.99Z" fill="white" stroke="#333333" stroke-width="10"/>
<path d="M112.085 132.676L127.151 30.2271H151.257L136.191 132.676H112.085Z" fill="black"/>
<path d="M109.933 130.524L124.999 28.0748H149.105L134.039 130.524H109.933Z" fill="white"/>
<path d="M187.378 31.5145C179.486 33.8103 163.358 38.6601 161.981 39.6932L159.398 54.3287L154.232 54.7592L151.219 74.9907H156.815L151.219 110.719C149.153 125.871 161.55 129.659 168.007 129.659L181.782 129.228L190.821 108.566H181.351C176.53 109.255 176.186 103.975 176.616 101.249L181.351 74.1298H193.404L196.417 53.4678H183.934L187.378 31.5145Z" fill="white" stroke="#333333" stroke-width="9"/>
<path d="M189.797 32.8098C181.905 35.1056 165.778 39.9554 164.4 40.9885L161.817 55.6241L156.652 56.0545L153.639 76.286H159.235L153.639 112.014C151.572 127.166 163.97 130.954 170.426 130.954L184.201 130.524L193.241 109.862H183.771C178.949 110.55 178.605 105.27 179.036 102.544L183.771 75.4251H195.823L198.837 54.7631H186.353L189.797 32.8098Z" fill="black"/>
<path d="M187.415 31.088C179.524 33.3838 163.396 38.2336 162.018 39.2667L159.436 53.9022L154.27 54.3327L151.257 74.5642H156.853L151.257 110.292C149.191 125.444 161.588 129.232 168.045 129.232L181.819 128.802L190.859 108.14H181.389C176.568 108.829 176.223 103.548 176.654 100.822L181.389 73.7032H193.442L196.455 53.0413H183.972L187.415 31.088Z" fill="white"/>
<path d="M253.49 115.015C243.99 129.015 223.99 142.515 204.99 129.015C186.99 112.515 189.49 79.5145 200.99 66.5146C210.49 51.5146 248.49 47.5146 260.99 58.5145C274.725 69.6791 266.99 97.0146 253.49 115.015Z" fill="#333333"/>
<path d="M255.077 111.341C243.577 129.841 224.436 138.601 211.077 128.341C198.709 118.841 194.077 88.8405 205.577 73.3405C213.577 60.3405 246.077 57.3405 257.577 64.3406C270.936 74.6013 264.577 93.3406 255.077 111.341Z" fill="black"/>
<path d="M252.99 108.515C241.49 127.015 222.349 135.775 208.99 125.515C196.621 116.015 191.99 86.0146 203.49 70.5146C211.49 57.5146 243.99 54.5146 255.49 61.5146C268.849 71.7753 262.49 90.5146 252.99 108.515Z" fill="white"/>
<path d="M242.725 93.5388C241.853 104.44 235.286 111.832 227.229 111.188C219.171 110.543 215.164 102.718 216.037 91.817C216.909 80.916 223.906 73.5235 231.964 74.1682C240.021 74.813 243.597 82.6379 242.725 93.5388Z" fill="#333333"/>
</svg>
