<svg width="286" height="170" viewBox="0 0 286 170" fill="none" xmlns="http://www.w3.org/2000/svg">
<path fill-rule="evenodd" clip-rule="evenodd" d="M184.23 155C211.538 119.5 176.918 74.5465 142.23 41.9999C98 0.499984 35.0225 -12.7983 9.49997 15.5C-19.5 51 24 106.5 58.9999 135C96.4999 164.5 161.153 185 184.23 155ZM176.234 124.552C183.551 112.93 170.439 76.5883 144.38 54.3877C118.32 32.187 66.0366 0.150153 40.2092 19.0901C15.2427 44.9177 63.6525 90.7291 89.7117 112.93C119.413 130.148 161.869 147.366 176.234 124.552Z" fill="#022A75"/>
<path d="M106.93 145.214C0.176725 88.3938 2.47249 37.7434 16.9645 19.5207C12.8322 61.5333 71.4891 108.769 101.334 127.135C161.118 158.652 182.174 143.852 186.049 130.751C186.239 129.997 186.411 129.223 186.565 128.426C186.451 129.188 186.281 129.966 186.049 130.751C177.271 165.508 129.962 155.045 106.93 145.214Z" fill="#9DDFED"/>
<path d="M216.869 55.2796L216.869 55.2796L216.872 55.283C223.356 61.9104 242.006 73.0762 264.8 64.7932C268.529 64.0781 277.846 63.1679 285.383 65.2233L285.488 64.9435C279.091 61.8517 275.529 54.8592 272.623 46.5865C271.621 43.7324 270.699 40.7342 269.766 37.6981C269.347 36.3371 268.926 34.9684 268.495 33.6017C267.102 29.1898 265.6 24.8034 263.712 20.7854C259.937 12.7482 254.609 6.16506 245.508 3.79511C236.418 1.42784 223.599 3.27461 204.864 11.9964L204.97 12.2761C214.841 9.31481 238.419 10.9394 254.228 40.9425C244.556 30.9226 219.214 14.7224 188.954 24.4729L188.98 24.7643C193.644 25.4004 196.732 28.768 200.608 34.1412C201.404 35.2447 202.233 36.4314 203.114 37.694C206.517 42.5677 210.709 48.5717 216.869 55.2796Z" fill="#519710" stroke="black" stroke-width="0.3"/>
<path d="M107.622 29C6.72305 31.4106 12.2042 108.635 27.5572 146.945L51.2323 132.31C43.6562 118.191 44.058 105.478 45.2059 100.886H73.616L69.7419 131.879H95.5693L106.331 56.1188H79.212L76.1988 77.2112L50.3714 78.0721C55.8812 53.9665 93.417 50.8098 111.496 52.2447L107.622 29Z" fill="white" stroke="#11782D" stroke-width="9"/>
<path d="M109.461 30.7126C8.56169 33.1231 14.0428 110.347 29.3958 148.658L53.0709 134.022C45.4949 119.903 45.8966 107.19 47.0445 102.599H75.4547L71.5806 133.592H97.408L108.169 57.8314H81.0506L78.0374 78.9237L52.21 79.7847C57.7198 55.6791 95.2557 52.5224 113.335 53.9572L109.461 30.7126Z" fill="black"/>
<path d="M107.36 28.9908C6.46139 31.4013 11.9425 108.625 27.2955 146.936L50.9706 132.3C43.3946 118.181 43.7963 105.469 44.9442 100.877H73.3544L69.4803 131.87H95.3077L106.069 56.1095H78.9503L75.9371 77.2019L50.1097 78.0628C55.6195 53.9573 93.1554 50.8006 111.235 52.2354L107.36 28.9908Z" fill="white"/>
<path d="M110 131.449L125.066 29H149.172L134.106 131.449H110Z" fill="white" stroke="#11782D" stroke-width="10"/>
<path d="M112.095 133.161L127.161 30.7126H151.267L136.201 133.161H112.095Z" fill="black"/>
<path d="M109.943 131.009L125.009 28.5603H149.115L134.049 131.009H109.943Z" fill="white"/>
<path d="M187.388 32C179.496 34.2958 163.368 39.1456 161.991 40.1787L159.408 54.8142L154.243 55.2447L151.229 75.4761H156.825L151.229 111.204C149.163 126.356 161.56 130.144 168.017 130.144L181.792 129.714L190.831 109.052H181.361C176.54 109.741 176.196 104.46 176.626 101.734L181.361 74.6152H193.414L196.427 53.9533H183.944L187.388 32Z" fill="white" stroke="#11782D" stroke-width="9"/>
<path d="M189.807 33.2953C181.915 35.5911 165.788 40.4409 164.41 41.474L161.827 56.1095L156.662 56.54L153.649 76.7714H159.245L153.649 112.499C151.583 127.651 163.98 131.439 170.437 131.439L184.211 131.009L193.251 110.347H183.781C178.96 111.036 178.615 105.756 179.046 103.029L183.781 75.9105H195.834L198.847 55.2486H186.363L189.807 33.2953Z" fill="black"/>
<path d="M187.425 31.5735C179.534 33.8693 163.406 38.7191 162.028 39.7522L159.446 54.3877L154.28 54.8182L151.267 75.0496H156.863L151.267 110.778C149.201 125.93 161.598 129.718 168.055 129.718L181.829 129.287L190.869 108.625H181.399C176.578 109.314 176.234 104.034 176.664 101.307L181.399 74.1887H193.452L196.465 53.5268H183.982L187.425 31.5735Z" fill="white"/>
<path d="M253.5 115.5C244 129.5 224 143 205 129.5C187 113 189.5 80 201 67.0001C210.5 52 248.5 48 261 59C274.735 70.1645 267 97.5001 253.5 115.5Z" fill="#022A75"/>
<path d="M255.088 111.826C243.588 130.326 224.446 139.087 211.088 128.826C198.719 119.326 194.088 89.326 205.588 73.826C213.588 60.826 246.088 57.826 257.588 64.8261C270.946 75.0868 264.588 93.8261 255.088 111.826Z" fill="#000241"/>
<path d="M253 109C241.5 127.5 222.359 136.261 209 126C196.631 116.5 192 86.5001 203.5 71.0001C211.5 58 244 55 255.5 62.0001C268.859 72.2608 262.5 91.0001 253 109Z" fill="white"/>
<path d="M242.735 94.0243C241.863 104.925 235.296 112.318 227.239 111.673C219.181 111.028 215.175 103.203 216.047 92.3024C216.919 81.4015 223.917 74.009 231.974 74.6537C240.031 75.2984 243.607 83.1233 242.735 94.0243Z" fill="#BF1112"/>
</svg>
